<svg xmlns="http://www.w3.org/2000/svg" xmlns:xlink="http://www.w3.org/1999/xlink" width="84" height="20.701" viewBox="0 0 84 20.701"><defs><style>.a{fill:url(#a);}.b{fill:#fff;font-size:15px;font-family:YouSheBiaoTiHei;}.c{fill:#f5464b;}.d{fill:#ff4449;}.e{fill:#ff6468;}.f{fill:#fb878a;}.g{fill:#ff555a;}</style><linearGradient id="a" x1="0.973" y1="0.5" x2="0" y2="0.544" gradientUnits="objectBoundingBox"><stop offset="0" stop-color="#ea4253"/><stop offset="1" stop-color="#ee323a"/></linearGradient></defs><g transform="translate(-525 -88.853)"><rect class="a" width="70" height="20" rx="4" transform="translate(539 88.853)"/><text class="b" transform="translate(549 103.853)"><tspan x="0" y="0">超级会员</tspan></text><g transform="translate(525 89.783)"><path class="c" d="M136.405,270.82l17.881,14.007a.816.816,0,0,1,.336.882.73.73,0,0,1-.691.584H139.269a1.485,1.485,0,0,1-1.423-1.375Z" transform="translate(-134.764 -266.622)"/><path class="d" d="M216.443,284.85a1.478,1.478,0,0,1-1.413,1.375H200.96c-.323,0-1.1-.239-1.187-.583a.818.818,0,0,1,.334-.882l18.13-13.713-1.794,13.8Z" transform="translate(-196.267 -266.554)"/><path class="e" d="M512,170.667l7.9,15.408a2.246,2.246,0,0,1,.058,1.863,1.43,1.43,0,0,1-1.264.953H512Z" transform="translate(-500.338 -169.12)"/><path class="f" d="M195.886,170.667l-8.366,15.557a2.246,2.246,0,0,0-.058,1.863,1.265,1.265,0,0,0,1.251.8h7.173Z" transform="translate(-184.137 -169.12)"/><path class="g" d="M78.583,103.749a1.345,1.345,0,0,0,.688,1.168,1.4,1.4,0,0,0,1.376,0,1.346,1.346,0,0,0,.688-1.168,1.376,1.376,0,0,0-2.752,0Zm10.318,2.7a1.344,1.344,0,0,0,.679,1.192,1.4,1.4,0,0,0,1.393,0,1.345,1.345,0,0,0,.679-1.193,1.377,1.377,0,0,0-2.751,0Zm-20.634,0a1.342,1.342,0,0,0,.678,1.192,1.4,1.4,0,0,0,1.393,0,1.345,1.345,0,0,0,.679-1.193,1.377,1.377,0,0,0-2.751,0Z" transform="translate(-68.266 -102.4)"/></g></g></svg>